<?xml version="1.0" standalone="no"?>
<!DOCTYPE svg PUBLIC "-//W3C//DTD SVG 20010904//EN"
 "http://www.w3.org/TR/2001/REC-SVG-20010904/DTD/svg10.dtd">
<svg version="1.0" xmlns="http://www.w3.org/2000/svg"
 width="417.000000pt" height="417.000000pt" viewBox="0 0 417.000000 417.000000"
 preserveAspectRatio="xMidYMid meet">
<metadata>
Created by potrace 1.11, written by Peter Selinger 2001-2013
</metadata>
<g transform="translate(0.000000,417.000000) scale(0.100000,-0.100000)"
fill="#000000" stroke="none">
<path d="M10 2085 l0 -2085 1045 0 1045 0 0 1040 0 1040 1025 0 1025 0 0 1045
0 1045 -2070 0 -2070 0 0 -2085z m3314 1534 c-19 -48 -54 -103 -61 -96 -6 7
24 76 50 114 28 42 32 36 11 -18z m-219 -63 c16 -56 25 -102 21 -113 -6 -13
-14 3 -30 58 -12 43 -30 88 -39 102 -12 18 -13 27 -4 36 6 6 14 11 18 11 3 0
19 -42 34 -94z m-1939 42 c4 -7 3 -8 -4 -4 -7 4 -12 3 -12 -3 0 -6 -30 -20
-67 -31 -67 -20 -113 -20 -140 2 -7 6 -24 8 -38 6 -13 -3 -22 -1 -19 3 3 5 22
9 42 9 20 1 64 7 97 14 76 18 132 19 141 4z m-2 -36 c2 -4 1 -14 -3 -21 -6 -9
-10 -7 -14 8 -5 20 7 29 17 13z m1724 -70 c22 -17 22 -17 2 -30 -17 -10 -21
-8 -35 18 -8 16 -20 42 -26 57 l-10 28 23 -28 c13 -16 33 -36 46 -45z m539
-23 c23 -11 65 -41 93 -66 27 -24 62 -48 77 -53 28 -8 28 -8 3 -9 -13 -1 -50
15 -82 34 -58 36 -156 75 -189 75 -24 0 -35 20 -18 31 24 15 71 10 116 -12z
m-537 -60 c0 -5 -17 -17 -37 -25 -21 -9 -61 -33 -89 -54 -59 -44 -146 -90
-171 -90 -10 0 1 10 25 21 23 12 51 34 63 50 24 34 79 78 105 84 11 2 33 8 49
14 41 13 55 13 55 0z m-1727 -18 c17 -6 17 -8 -2 -33 -18 -22 -19 -27 -6 -38
8 -6 20 -10 27 -7 7 2 21 0 31 -5 12 -6 17 -5 17 4 0 9 3 9 11 1 7 -7 20 -8
33 -4 11 4 49 6 84 5 34 -1 62 0 62 1 0 2 -14 12 -31 23 -25 15 -28 20 -14 25
9 4 13 3 10 -2 -7 -12 31 -24 46 -15 8 5 9 3 4 -6 -6 -10 -4 -12 9 -7 9 4 15
3 12 -2 -3 -5 1 -12 10 -15 10 -4 13 -2 8 6 -15 23 84 -52 120 -92 39 -43 76
-113 75 -140 0 -8 -5 -3 -11 13 -6 17 -17 27 -29 27 -17 0 -18 -5 -13 -40 11
-68 7 -123 -12 -177 -16 -47 -34 -70 -34 -44 0 5 -18 1 -40 -10 -21 -10 -60
-19 -86 -19 -30 0 -54 -6 -66 -17 -15 -14 -18 -14 -18 -1 0 16 -28 16 -91 0
-21 -5 -42 -6 -49 -2 -7 4 -28 3 -49 -2 -20 -6 -58 -10 -86 -10 -27 0 -53 -5
-57 -11 -5 -8 -13 -6 -25 5 -10 8 -24 13 -31 11 -7 -3 -19 1 -27 7 -12 10 -15
9 -15 -3 0 -18 -20 -16 -67 8 -18 9 -37 14 -42 11 -10 -7 -41 8 -89 42 -17 13
-32 20 -32 16 0 -3 -6 -1 -14 5 -8 7 -25 9 -39 6 -23 -6 -26 -3 -32 35 -8 50
2 150 16 150 6 0 7 5 4 10 -3 6 -1 10 5 10 6 0 10 8 7 18 -8 37 57 128 114
157 22 12 26 11 38 -7 8 -13 16 -16 24 -10 16 13 47 11 47 -2 0 -6 9 -17 19
-23 17 -11 23 -9 42 18 12 17 24 27 28 22 3 -4 21 -8 39 -8 25 0 35 6 47 28
14 27 13 28 -15 34 -17 3 -30 9 -30 14 0 5 -1 12 -2 16 -2 6 70 22 142 31 3 0
13 -3 23 -7z m2082 -5 c26 -1 33 -8 57 -56 14 -30 29 -68 32 -85 l6 -30 -32
40 c-18 22 -55 64 -84 93 -35 35 -45 50 -30 46 11 -4 35 -7 51 -8z m-2421 -13
c-10 -7 -25 -13 -33 -13 -14 1 -14 2 1 14 10 7 25 13 34 13 15 0 15 -2 -2 -14z
m2222 -28 c-9 -34 -103 -235 -111 -235 -3 0 -3 17 1 37 7 35 6 36 -9 21 -10
-10 -17 -34 -18 -60 l-1 -43 -10 40 c-10 44 -3 161 13 213 9 27 14 31 37 28
15 -3 38 1 52 9 39 22 53 19 46 -10z m471 -5 c33 -20 50 -57 39 -86 -5 -13 -9
-13 -35 5 -36 26 -64 68 -57 87 7 19 15 18 53 -6z m-267 -75 c32 -29 82 -124
75 -145 -6 -19 -33 -28 -98 -32 -31 -2 -43 3 -58 22 -10 14 -19 31 -19 38 0 6
-6 12 -14 12 -29 0 -31 83 -3 119 15 18 92 9 117 -14z m-2610 -8 c0 -2 -10
-12 -22 -23 l-23 -19 19 23 c18 21 26 27 26 19z m2180 -16 c25 -48 -7 -122
-56 -127 -34 -4 -44 9 -44 57 0 38 13 60 45 77 29 16 43 14 55 -7z m-1143
-208 c-3 -10 -5 -4 -5 12 0 17 2 24 5 18 2 -7 2 -21 0 -30z m-1031 -344 c24
-26 25 -30 7 -20 -13 6 -27 20 -33 31 -15 28 -8 25 26 -11z m246 -946 c59 -22
84 -48 119 -119 18 -39 41 -69 60 -82 29 -18 35 -18 65 -6 66 27 134 11 168
-40 12 -19 25 -26 50 -26 55 0 107 -72 97 -133 -1 -4 -1 -49 -2 -100 0 -142
-33 -343 -50 -316 -7 11 -9 9 -9 -5 0 -11 -8 -29 -18 -40 -20 -23 -52 -101
-52 -128 0 -28 -59 -86 -109 -109 -84 -38 -186 -8 -238 70 -16 24 -20 38 -13
46 11 14 4 41 -17 66 -30 36 -45 125 -53 314 -4 105 -9 197 -11 205 -3 11 5
15 26 16 46 2 47 2 29 29 -18 28 -12 42 24 56 22 8 24 12 12 20 -11 8 -10 9 8
4 26 -8 27 0 8 75 -8 29 -12 60 -9 67 3 7 -11 29 -30 48 -34 34 -57 44 -57 26
0 -6 -18 -4 -42 3 -45 13 -59 36 -38 61 16 19 30 19 82 -2z m68 -182 c23 -43
8 -70 -34 -62 -5 1 -13 -4 -17 -11 -7 -11 -9 -11 -9 0 0 7 -5 10 -10 7 -8 -5
-7 -12 2 -23 7 -10 8 -14 4 -10 -5 4 -15 3 -22 -3 -11 -9 -15 -7 -20 5 -4 10
-12 15 -20 12 -7 -3 -15 0 -18 7 -2 7 -5 1 -5 -11 -1 -13 8 -36 20 -50 21 -27
9 -46 -14 -23 -12 12 -47 15 -47 5 0 -3 11 -15 25 -26 14 -11 25 -27 25 -36 0
-9 7 -29 14 -44 9 -17 11 -30 5 -34 -6 -3 -7 -59 -4 -137 4 -128 -10 -267 -27
-267 -10 0 -6 -100 4 -106 3 -2 9 0 13 6 9 15 45 12 51 -5 9 -23 -15 -45 -47
-45 -34 0 -99 29 -99 45 0 6 -12 22 -26 34 -14 12 -35 42 -45 67 -11 24 -24
44 -29 44 -5 0 -6 7 -3 17 5 11 3 14 -6 8 -10 -5 -11 -2 -6 14 3 12 2 21 -3
21 -15 0 -35 133 -35 225 0 140 37 211 132 251 27 11 41 13 53 5 22 -14 39
-14 18 -1 -10 6 -11 10 -3 10 7 0 19 15 26 33 18 41 46 65 94 83 50 17 51 17
63 -5z"/>
<path d="M1100 3330 c0 -5 5 -10 11 -10 5 0 7 5 4 10 -3 6 -8 10 -11 10 -2 0
-4 -4 -4 -10z"/>
<path d="M1131 1461 c-9 -6 -10 -11 -2 -15 7 -4 7 -15 1 -31 -6 -16 -6 -27 1
-31 13 -7 108 57 109 74 0 14 -87 17 -109 3z"/>
<path d="M957 1413 c-12 -11 -8 -23 7 -23 8 0 16 7 20 15 5 15 -14 21 -27 8z"/>
<path d="M2938 1343 c100 -2 264 -2 365 0 100 1 18 2 -183 2 -201 0 -283 -1
-182 -2z"/>
<path d="M2743 1260 c0 -47 2 -66 4 -42 2 23 2 61 0 85 -2 23 -4 4 -4 -43z"/>
<path d="M3493 1260 c0 -47 2 -66 4 -42 2 23 2 61 0 85 -2 23 -4 4 -4 -43z"/>
<path d="M2938 1173 c100 -2 264 -2 365 0 100 1 18 2 -183 2 -201 0 -283 -1
-182 -2z"/>
<path d="M2943 1013 c104 -2 270 -2 370 0 100 1 16 2 -188 2 -203 0 -285 -1
-182 -2z"/>
<path d="M2743 925 c0 -44 2 -61 4 -37 2 23 2 59 0 80 -2 20 -4 1 -4 -43z"/>
<path d="M3493 925 c0 -44 2 -61 4 -37 2 23 2 59 0 80 -2 20 -4 1 -4 -43z"/>
</g>
</svg>
